<svg width="564" height="476" viewBox="0 0 564 476" fill="none" xmlns="http://www.w3.org/2000/svg">
<circle cx="121" cy="77" r="45" fill="url(#paint0_linear_1_130)"/>
<path d="M90 243C90 267.853 69.8528 288 45 288C20.1472 288 0 267.853 0 243C0 218.147 20.1472 198 45 198C69.8528 198 90 218.147 90 243Z" fill="url(#paint1_linear_1_130)"/>
<circle cx="519" cy="45" r="45" fill="url(#paint2_linear_1_130)"/>
<circle cx="76" cy="431" r="45" fill="url(#paint3_linear_1_130)"/>
<path d="M21.1094 231.793V245.469C21.1094 246.576 21.2324 247.666 21.4785 248.686C22.6562 253.572 26.541 257.018 32.0254 257.018C37.5098 257.018 41.377 253.572 42.5547 248.686C42.7832 247.666 42.9238 246.576 42.9238 245.469V231.793H37.668V245.557C37.668 246.365 37.5625 247.156 37.3516 247.912C36.7012 250.268 34.9609 252.148 32.0078 252.148C29.0898 252.148 27.3496 250.268 26.6816 247.912C26.4707 247.156 26.3652 246.365 26.3652 245.557V231.793H21.1094ZM44.998 257H51.4844L57.6719 247.93L63.8594 257H70.3633L60.7129 243.693L69.3262 231.811H62.875L57.6719 239.422L52.4688 231.811H46.0176L54.6309 243.693L44.998 257Z" fill="#00C4F0"/>
<path d="M101.055 75.7949V81.1035L116.102 88.4512V82.9492L106.135 78.4492L116.102 73.9668V68.4648L101.055 75.7949ZM135.314 60.9766L119.266 96.0449H124.803L140.852 60.9766H135.314Z" fill="#00C4F0"/>
<path d="M503.109 33.793V47.4688C503.109 48.5762 503.232 49.666 503.479 50.6855C504.656 55.5723 508.541 59.0176 514.025 59.0176C519.51 59.0176 523.377 55.5723 524.555 50.6855C524.783 49.666 524.924 48.5762 524.924 47.4688V33.793H519.668V47.5566C519.668 48.3652 519.562 49.1562 519.352 49.9121C518.701 52.2676 516.961 54.1484 514.008 54.1484C511.09 54.1484 509.35 52.2676 508.682 49.9121C508.471 49.1562 508.365 48.3652 508.365 47.5566V33.793H503.109ZM529.424 59H534.697V33.793H529.424V59Z" fill="#00C4F0"/>
<path d="M60.6289 430.023V424.662H67.0098C68.0469 424.662 68.5215 424.75 68.9434 424.926C69.9629 425.33 70.7188 426.174 70.7188 427.352C70.7188 428.564 69.9277 429.373 68.9434 429.777C68.5039 429.953 68.0293 430.023 67.0273 430.023H60.6289ZM60.6289 445V434.857H67.7129C69.8574 434.857 71.3164 434.436 72.5117 433.68C74.5859 432.379 75.9043 430.111 75.9043 427.352C75.9043 424.486 74.5859 422.254 72.5469 420.988C71.334 420.215 69.8574 419.811 67.7129 419.811H55.373V445H60.6289ZM77.8906 440.641C81.3887 443.77 85.2734 445 88.6309 445C94.0449 445 98.2461 441.73 98.2461 437.283C98.2461 431.57 93.1133 430.146 88.877 429.443C85.3086 428.846 83.2344 428.371 83.2344 426.719C83.2344 425.207 85.1855 424.539 87.0312 424.539C89.2988 424.539 91.7422 425.383 93.4121 426.789L96.4004 423.045C93.6055 420.848 90.2832 419.775 87.1016 419.775C81.3535 419.775 78.1367 423.062 78.1367 427.193C78.1367 431.236 81.5117 432.994 85.7305 433.873C89.4395 434.646 93.0781 434.945 93.0781 437.301C93.0781 439.234 90.6875 440.113 88.543 440.113C85.7832 440.113 83.1465 438.777 81.0547 436.861L77.8906 440.641Z" fill="#00C4F0"/>
<defs>
<linearGradient id="paint0_linear_1_130" x1="76" y1="32" x2="172.755" y2="115.157" gradientUnits="userSpaceOnUse">
<stop stop-color="#414141"/>
<stop offset="1" stop-color="#2D2D2D"/>
</linearGradient>
<linearGradient id="paint1_linear_1_130" x1="0" y1="198" x2="96.7553" y2="281.157" gradientUnits="userSpaceOnUse">
<stop stop-color="#414141"/>
<stop offset="1" stop-color="#2D2D2D"/>
</linearGradient>
<linearGradient id="paint2_linear_1_130" x1="474" y1="0" x2="570.755" y2="83.157" gradientUnits="userSpaceOnUse">
<stop stop-color="#414141"/>
<stop offset="1" stop-color="#2D2D2D"/>
</linearGradient>
<linearGradient id="paint3_linear_1_130" x1="31" y1="386" x2="127.755" y2="469.157" gradientUnits="userSpaceOnUse">
<stop stop-color="#414141"/>
<stop offset="1" stop-color="#2D2D2D"/>
</linearGradient>
</defs>
</svg>
